<?xml version="1.0" encoding="UTF-8" standalone="no"?>
<!-- Created with Inkscape (http://www.inkscape.org/) -->

<svg
   xmlns:dc="http://purl.org/dc/elements/1.1/"
   xmlns:cc="http://creativecommons.org/ns#"
   xmlns:rdf="http://www.w3.org/1999/02/22-rdf-syntax-ns#"
   xmlns:svg="http://www.w3.org/2000/svg"
   xmlns="http://www.w3.org/2000/svg"
   xmlns:sodipodi="http://sodipodi.sourceforge.net/DTD/sodipodi-0.dtd"
   xmlns:inkscape="http://www.inkscape.org/namespaces/inkscape"
   id="svg4182"
   version="1.1"
   inkscape:version="0.91 r13725"
   width="458.4375"
   height="523.125"
   viewBox="0 0 458.4375 523.125"
   sodipodi:docname="LadyReadingSilhouette2.svg">
  <metadata
     id="metadata4188">
    <rdf:RDF>
      <cc:Work
         rdf:about="">
        <dc:format>image/svg+xml</dc:format>
        <dc:type
           rdf:resource="http://purl.org/dc/dcmitype/StillImage" />
        <dc:title></dc:title>
      </cc:Work>
    </rdf:RDF>
  </metadata>
  <defs
     id="defs4186" />
  <sodipodi:namedview
     pagecolor="#ffffff"
     bordercolor="#666666"
     borderopacity="1"
     objecttolerance="10"
     gridtolerance="10"
     guidetolerance="10"
     inkscape:pageopacity="0"
     inkscape:pageshadow="2"
     inkscape:window-width="1600"
     inkscape:window-height="837"
     id="namedview4184"
     showgrid="false"
     inkscape:zoom="1.2807646"
     inkscape:cx="229.21875"
     inkscape:cy="261.5625"
     inkscape:window-x="-8"
     inkscape:window-y="-8"
     inkscape:window-maximized="1"
     inkscape:current-layer="svg4182" />
  <path
     style="fill:#000000"
     d="m 110.26809,519.34273 c -1.48535,-0.44474 -3.59473,-1.646 -4.6875,-2.66947 -3.20543,-3.00218 -6.216456,-3.69905 -20.899375,-4.83693 -7.644981,-0.59246 -14.048812,-1.22108 -14.230737,-1.39691 -0.181923,-0.17584 -1.309401,0.0524 -2.505504,0.50712 -1.554188,0.5909 -2.493276,0.44301 -3.291079,-0.51828 -0.61399,-0.73981 -1.473843,-1.12417 -1.910785,-0.85413 -1.162805,0.71866 -8.636136,-4.94521 -10.040182,-7.60922 -2.701303,-5.12539 3.060568,-8.83991 13.712273,-8.83991 9.403529,0 12.19498,-0.76023 13.736401,-3.74101 1.146654,-2.21738 2.034446,-2.61982 6.756137,-3.06248 16.122841,-1.51155 24.143901,-8.6213 39.390631,-34.91526 9.57086,-16.50557 9.89294,-20.07846 2.61561,-29.01574 -4.4217,-5.43032 -9.85148,-15.91509 -9.85148,-19.02302 0,-17.50718 -31.007258,-13.4414 -40.006657,5.24582 -8.395015,17.43221 -18.498391,21.49711 -28.335386,11.40019 -3.762175,-3.86159 -4.706395,-4.32415 -10.78125,-5.28163 -33.5833866,-5.29316 -52.318773,-30.97519 -19.420313,-26.62091 18.674712,2.47169 43.036703,-1.57685 52.963081,-8.80154 7.006962,-5.09987 11.830525,-10.59037 11.830525,-13.46631 0,-6.9976 18.50465,-25.22023 49.72596,-48.96811 4.40629,-3.35156 12.34346,-10.8351 17.63815,-16.63008 43.7467,-47.88032 59.81076,-53.96501 96.62022,-36.59747 4.42581,2.0882 9.31254,4.12748 10.85942,4.53173 1.54687,0.40425 5.46368,1.67727 8.70402,2.82892 5.73065,2.03676 6.04384,2.05158 11.47022,0.54292 3.06829,-0.85306 6.8258,-1.55102 8.35002,-1.55102 4.38506,0 4.58314,-1.90571 0.53065,-5.10545 -5.31164,-4.19392 -11.22861,-10.54202 -15.72379,-16.86947 -2.17586,-3.06277 -6.59284,-8.42498 -9.8155,-11.91601 -5.97769,-6.47553 -6.18252,-6.86935 -5.89004,-11.32456 0.22723,-3.46114 -3.56822,-6.83635 -9.2093,-8.18962 -5.15404,-1.23643 -12.29946,-5.18936 -17.01003,-9.41016 -4.56351,-4.08902 -6.57722,-4.70035 -13.38792,-4.06436 l -5.9389,0.55458 -4.63346,-5.62998 c -2.5484,-3.0965 -6.32097,-7.8232 -8.38347,-10.5038 -2.0625,-2.68061 -6.49535,-8.32164 -9.85078,-12.53563 -19.81038,-24.8793 -17.94171,-28.28679 15.5125,-28.28679 l 18.78672,0 3.3947,-3.29417 C 231.67638,138.94673 246.704,131.25 250.83237,131.25 c 3.63036,0 7.07155,4.08689 15.41763,18.31056 2.32031,3.95435 5.31717,8.51857 6.65968,10.14272 1.34252,1.62413 3.62043,4.85141 5.06202,7.17172 1.44161,2.32031 2.87443,4.43001 3.18407,4.68821 1.04921,0.87492 3.84423,6.70597 3.84423,8.01994 0,0.71841 -1.2145,1.93424 -2.69889,2.70185 -3.66912,1.89737 -4.06428,3.48744 -1.91459,7.70393 2.45045,4.80642 1.93151,5.57602 -4.18562,6.20737 -6.85313,0.7073 -7.1384,0.95637 -7.1384,6.2326 0,5.37034 2.65867,9.4461 6.16179,9.4461 1.25164,0 3.01399,0.87369 3.91633,1.94154 6.01325,7.11618 18.6282,16.9763 26.48438,20.70078 2.32031,1.10003 5.41128,2.99457 6.86881,4.21011 7.02609,5.85956 13.95711,-1.98291 10.47494,-11.85243 -3.93263,-11.14628 -0.94724,-29.2031 8.41396,-50.89085 3.89006,-9.01239 3.87426,-9.25277 -0.62317,-9.47896 -4.24532,-0.2135 -4.59996,-2.82299 -0.84925,-6.24873 1.59622,-1.45792 2.90221,-3.54603 2.90221,-4.64024 0,-3.38412 1.86911,-5.71905 6.06325,-7.57432 4.6068,-2.03781 5.37464,-3.81818 4.09793,-9.50183 -1.92857,-8.58553 -7.40656,-10.33803 -17.27707,-5.52725 -12.15845,5.92592 -14.82792,5.71206 -18.23838,-1.46104 -3.84061,-8.07783 -7.32368,-12.18316 -11.78063,-13.88528 -5.13892,-1.96258 -5.61658,-2.89393 -6.25595,-12.19775 -0.63659,-9.263363 -2.43712,-13.102789 -6.82357,-14.550448 -1.80974,-0.59727 -4.57515,-2.710724 -6.21188,-4.747407 -2.85349,-3.550798 -5.6585,-4.669287 -6.85495,-2.733395 -0.98994,1.601757 -4.06318,1.029561 -4.66566,-0.868684 -0.85281,-2.686984 1.55256,-7.577483 6.42563,-13.064301 5.09805,-5.740126 5.15438,-6.307647 1.86839,-18.82265 -3.26501,-12.435063 -0.60642,-15.975456 18.58685,-24.751728 6.48892,-2.967117 7.1034,-3.525719 11.74068,-10.673255 5.25269,-8.0960659 9.90102,-12.7088328 12.341,-12.2465855 2.15892,0.4090028 2.54859,7.4445345 0.57883,10.4507785 -2.00243,3.056099 -0.76655,3.703094 5.56299,2.912271 9.24478,-1.15506 14.25671,2.283166 20.58112,14.118843 3.65765,6.845018 8.18017,11.395714 12.41364,12.490983 1.99597,0.516388 5.44618,1.41654 7.66713,2.000338 5.52119,1.451293 7.97664,4.034682 7.1992,7.574337 -0.52987,2.41245 0.0994,3.539187 5.15057,9.222679 10.54036,11.859794 12.48291,24.114791 5.17566,32.651683 -1.68436,1.967785 -3.21961,4.393772 -3.41167,5.391066 -0.19291,1.001685 -1.39382,2.059865 -2.68311,2.364225 -6.73228,1.58928 1.46603,13.90992 8.34091,12.53495 2.53723,-0.50745 2.98017,-0.26232 3.82619,2.11745 0.52623,1.48024 1.31872,3.32416 1.76111,4.0976 1.14521,2.00223 11.93482,9.26707 17.47804,11.76827 11.38344,5.13644 16.08484,14.44938 21.98219,43.54423 2.2187,10.94606 3.58115,26.99253 4.61678,54.375 0.7482,19.7828 2.44596,27.42417 8.3317,37.5 2.21423,3.79057 8.39383,15.35582 10.413,19.48819 0.43148,0.88306 1.76434,3.56708 2.96189,5.96449 2.16434,4.33284 0.90824,12.98482 -1.88514,12.98482 -2.31125,0 -3.58045,10.08284 -1.84408,14.64984 6.73737,17.72062 -0.92342,44.05703 -16.03409,55.12226 -11.99574,8.78424 -10.87112,8.39018 -28.0735,9.83677 -5.91673,0.49756 -11.71376,0.48097 -14.53125,-0.0416 -8.18978,-1.51892 -34.03978,-2.0564 -37.14005,-0.77223 -2.3353,0.96731 -4.37391,0.77251 -13.27816,-1.26882 -9.66669,-2.21613 -20.12986,-4.24174 -32.08179,-6.21084 -2.57812,-0.42475 -11.91756,-0.84132 -20.75429,-0.92571 -18.03756,-0.17226 -17.20754,-0.45137 -21.57355,7.25473 -4.89639,8.64223 -9.17502,14.33049 -12.17279,16.18322 -2.6813,1.65718 -5.96812,8.59417 -5.96812,12.59604 0,1.05123 -21.74322,44.82158 -23.04398,46.38886 -1.75659,2.11649 -6.95602,12.43332 -6.95602,13.80228 0,3.39673 -5.46638,1.17988 -7.51238,-3.04661 -3.40559,-7.035 -14.6526,-9.60487 -20.84067,-4.76198 -4.40923,3.45074 -14.57199,-0.57588 -20.12523,-7.97386 -7.78006,-10.36454 -36.97414,16.82848 -38.83225,36.17055 -2.11217,21.98683 -8.2374,29.55638 -20.85888,25.77735 z"
     id="path4192"
     inkscape:connector-curvature="0" />
</svg>
